<?xml version="1.0" standalone="no"?>
<!DOCTYPE svg PUBLIC "-//W3C//DTD SVG 20010904//EN"
 "http://www.w3.org/TR/2001/REC-SVG-20010904/DTD/svg10.dtd">
<svg version="1.0" xmlns="http://www.w3.org/2000/svg"
 width="300.000000pt" height="300.000000pt" viewBox="0 0 300.000000 300.000000"
 preserveAspectRatio="xMidYMid meet">
<metadata>
Created by potrace 1.10, written by Peter Selinger 2001-2011
</metadata>
<g transform="translate(0.000000,300.000000) scale(0.100000,-0.100000)"
fill="#000000" stroke="none">
<path d="M365 1914 c58 -54 123 -93 180 -109 28 -8 165 -26 305 -40 360 -36
340 -34 340 -19 0 18 57 1 86 -27 19 -18 74 -143 74 -169 0 -6 -82 -30 -105
-30 -2 0 -5 10 -7 22 -2 14 -14 25 -36 32 l-32 11 22 22 c21 21 21 23 4 42 -9
10 -34 22 -54 26 l-37 8 35 9 c19 5 39 13 43 17 8 8 -302 21 -500 21 -62 0
-113 -4 -113 -8 0 -13 52 -58 90 -78 39 -21 121 -23 400 -9 155 7 177 -3 50
-24 -157 -25 -350 -64 -350 -70 0 -4 19 -19 42 -34 55 -35 84 -35 262 8 220
52 221 47 9 -40 -79 -32 -143 -62 -143 -66 0 -12 61 -29 108 -29 34 0 67 12
146 54 55 29 113 56 128 60 32 7 74 -7 107 -37 23 -21 24 -21 18 -2 -3 11 -29
76 -57 145 -49 119 -75 161 -112 181 -14 7 -791 149 -908 165 l-35 5 40 -37z
m390 -84 c30 -7 18 -8 -50 -4 -92 5 -195 28 -195 43 0 8 140 -15 245 -39z m73
-157 c-21 -2 -55 -2 -75 0 -21 2 -4 4 37 4 41 0 58 -2 38 -4z"/>
<path d="M2615 1944 c-5 -2 -203 -37 -438 -79 -236 -41 -436 -79 -445 -84 -37
-20 -63 -62 -112 -181 -28 -69 -53 -131 -57 -138 -3 -7 16 -1 43 13 61 32 79
29 210 -41 80 -42 112 -54 146 -54 47 0 108 17 108 29 0 4 -64 34 -142 66
-212 87 -212 93 5 40 191 -47 238 -45 290 13 17 19 15 20 -150 51 -93 18 -190
35 -216 38 -26 3 -50 10 -53 15 -4 6 69 6 187 1 260 -11 308 -9 349 12 39 20
90 64 90 78 0 6 -114 8 -312 3 -182 -3 -307 -3 -298 3 8 4 58 11 110 15 52 3
191 17 308 30 241 27 290 44 387 130 46 41 48 45 25 45 -14 0 -29 -2 -35 -5z
m-125 -74 c0 -16 -99 -39 -195 -44 -113 -7 -101 -1 61 28 71 13 130 25 132 25
1 1 2 -3 2 -9z m-683 -130 c-6 -23 7 -35 53 -48 l35 -9 -37 -8 c-20 -4 -44
-16 -54 -26 -16 -18 -16 -20 4 -42 22 -24 30 -43 13 -33 -18 11 -61 -13 -61
-34 0 -24 4 -23 -60 -9 -27 6 -50 16 -50 23 0 25 51 141 72 163 18 19 43 31
87 42 2 1 1 -8 -2 -19z m441 -67 c-21 -2 -55 -2 -75 0 -21 2 -4 4 37 4 41 0
58 -2 38 -4z"/>
<path d="M1932 1293 c-21 -41 -63 -226 -54 -235 7 -7 32 1 74 21 34 17 55 31
45 31 -10 0 -36 -9 -58 -21 -23 -11 -44 -18 -47 -15 -7 7 11 84 40 170 19 57
19 86 0 49z"/>
<path d="M1084 1268 c-69 -46 -71 -76 -8 -106 l47 -23 -42 -42 c-43 -45 -52
-67 -25 -67 21 0 84 64 84 85 0 16 26 44 40 45 3 0 6 -11 6 -25 1 -14 7 -32
14 -40 15 -18 34 -6 56 37 8 16 23 28 34 28 16 0 18 -4 10 -27 -15 -48 -20
-92 -11 -97 5 -3 12 18 15 47 8 61 14 73 41 80 18 4 17 5 -3 6 -17 1 -22 6
-18 19 18 61 27 105 22 109 -10 10 -27 -10 -56 -66 -26 -53 -31 -58 -56 -53
-19 3 -25 1 -20 -7 4 -6 14 -11 22 -11 18 0 18 -5 -2 -35 -24 -37 -36 -30 -32
18 2 35 7 43 26 45 12 2 20 7 17 12 -7 12 -43 1 -49 -16 -3 -8 -12 -14 -19
-14 -8 0 -20 -7 -27 -15 -11 -13 -15 -13 -29 -2 -9 8 -31 19 -48 27 -18 7 -33
18 -33 24 0 17 37 50 79 71 27 14 35 14 42 4 4 -8 11 -10 14 -7 11 11 -5 28
-24 28 -11 0 -41 -15 -67 -32z m241 -30 c-12 -58 -16 -68 -31 -68 -18 0 -18 1
8 55 26 53 32 57 23 13z m-201 -130 c-13 -24 -47 -58 -58 -58 -5 0 5 16 24 35
35 37 46 44 34 23z"/>
<path d="M1547 1282 c-9 -9 -23 -33 -31 -52 -15 -34 -15 -34 -16 -8 0 54 -32
38 -64 -32 -11 -24 -15 -27 -11 -10 17 80 18 110 3 110 -30 0 -73 -69 -63
-100 4 -11 14 -20 23 -19 11 0 12 3 5 6 -21 8 -15 50 12 80 31 35 31 27 0
-103 -14 -58 -25 -112 -25 -120 0 -25 17 -6 23 26 10 48 68 180 79 180 10 0 5
-68 -8 -112 -3 -10 -1 -18 4 -18 5 0 15 19 22 43 7 23 23 62 36 87 22 44 23
44 24 15 0 -16 -7 -65 -15 -108 -17 -91 -18 -97 -7 -97 11 0 43 233 34 242 -5
5 -16 0 -25 -10z"/>
<path d="M1715 1289 c-2 -8 -13 -39 -24 -70 -21 -62 -66 -139 -81 -139 -19 0
-22 53 -6 117 17 69 14 96 -4 47 -15 -40 -23 -146 -12 -163 14 -20 50 -4 67
30 9 16 18 29 21 29 2 0 3 -22 2 -50 -3 -44 10 -70 21 -39 2 7 -1 9 -8 5 -12
-8 -10 4 20 148 10 49 17 92 14 94 -2 3 -7 -1 -10 -9z"/>
<path d="M1821 1289 c-49 -10 -94 -35 -86 -49 3 -5 15 0 26 11 11 11 23 18 25
16 10 -10 -17 -87 -31 -87 -8 0 -17 -5 -21 -11 -4 -8 1 -9 15 -4 20 6 21 4 14
-22 -11 -42 -9 -76 4 -80 13 -5 97 67 88 75 -3 3 -20 -9 -38 -26 -40 -38 -47
-40 -47 -8 0 44 18 76 42 76 13 0 30 5 38 11 11 8 6 9 -23 5 l-38 -5 6 32 c10
43 22 57 54 58 14 0 35 4 46 9 18 8 18 9 -5 8 -14 0 -45 -4 -69 -9z"/>
</g>
</svg>
